<svg xmlns="http://www.w3.org/2000/svg" width="186" height="104.2" viewBox="0 0 186 104.2">
  <path id="esporte" d="M47,79.4l31-45h56l-34,52m0,0H51m49,0L72,20H90.5m66.2,59a6.9,6.9,0,1,0,6.9,6.9A6.9,6.9,0,0,0,156.7,79Zm0,0L134.5,34.4V20H155a7,7,0,0,1,0,14h-2.5M77.6,85.9A34.3,34.3,0,1,1,43.3,51.6,34.3,34.3,0,0,1,77.6,85.9Zm113.4,0a34.3,34.3,0,1,1-34.3-34.3A34.3,34.3,0,0,1,191,85.9Zm-140.8,0A6.9,6.9,0,1,1,43.3,79a6.9,6.9,0,0,1,6.9,6.9Z" transform="translate(-7 -18)" fill="none" stroke="#fec74b" stroke-linecap="round" stroke-linejoin="round" stroke-miterlimit="10" stroke-width="4"/>
</svg>
