<svg xmlns="http://www.w3.org/2000/svg" xmlns:xlink="http://www.w3.org/1999/xlink" width="39" height="35" viewBox="0 0 39 35">
  <defs>
    <clipPath id="clip-path">
      <rect id="Ret칙ngulo_103" data-name="Ret칙ngulo 103" width="39" height="35" transform="translate(1056 2944)" fill="#ffc00c"/>
    </clipPath>
  </defs>
  <g id="Grupo_de_m치scara_15" data-name="Grupo de m치scara 15" transform="translate(-1056 -2944)" clip-path="url(#clip-path)">
    <path id="twitter" d="M38.854,7.507a16.053,16.053,0,0,1-3.939,1.125c.634-.107,1.57-1.255,1.944-1.721A7.247,7.247,0,0,0,38.17,4.523c.034-.068.061-.154-.007-.206a.229.229,0,0,0-.21.018,20.13,20.13,0,0,1-4.679,1.792.314.314,0,0,1-.323-.085,3.781,3.781,0,0,0-.408-.419,8.281,8.281,0,0,0-2.267-1.389A7.894,7.894,0,0,0,26.8,3.672a8.319,8.319,0,0,0-3.3.932,8.509,8.509,0,0,0-2.659,2.172A8.169,8.169,0,0,0,19.251,9.96a8.663,8.663,0,0,0-.085,3.36c.027.188.01.213-.16.188-6.43-.954-11.756-3.255-16.081-8.181-.188-.214-.29-.214-.444.016-1.893,2.837-.975,7.394,1.389,9.634.316.3.639.6.988.869a8.186,8.186,0,0,1-3.1-.869c-.188-.118-.282-.05-.3.162a4.863,4.863,0,0,0,.051.921,8.247,8.247,0,0,0,5.082,6.574,4.8,4.8,0,0,0,1.031.314,9.19,9.19,0,0,1-3.043.1c-.222-.044-.307.067-.222.28,1.338,3.65,4.229,4.736,6.394,5.354.29.051.58.051.87.119-.017.026-.034.026-.051.051-.719,1.094-3.208,1.91-4.367,2.316a15.655,15.655,0,0,1-6.632.848c-.356-.052-.431-.049-.528,0s-.012.146.1.238c.451.3.912.563,1.381.819A21.877,21.877,0,0,0,5.96,34.842c7.967,2.2,16.941.584,22.925-5.36,4.7-4.668,6.342-11.1,6.342-17.55,0-.251.3-.39.475-.524a15.412,15.412,0,0,0,3.105-3.244A.944.944,0,0,0,39,7.542V7.507C39,7.405,39.012,7.436,38.854,7.507Z" transform="translate(1056 2941.782)" fill="#fec63e" fill-rule="evenodd"/>
  </g>
</svg>
