<svg xmlns="http://www.w3.org/2000/svg" width="200" height="125.51" viewBox="0 0 200 125.51">
  <g id="Grupo_12" data-name="Grupo 12" transform="translate(1 -0.75)">
    <path id="Caminho_21" data-name="Caminho 21" d="M9.255,10.2c3.19-.125,10.969-.377,14.924-1.261-.129,1.641-.384,6.685-.384,16.271V29.5c3.571-2.9,6.506-4.415,10.078-4.415a10.538,10.538,0,0,1,9.184,4.668,19.614,19.614,0,0,1,2.551,10.217c0,11.728-5.612,18.414-16.965,18.414a21.594,21.594,0,0,1-8.929-2.145c-1.531.5-3.571,1.513-5.612,2.145L13.463,58c.129-3.406.129-9.838.129-18.541V23.315c0-4.036-.129-6.811-.255-9.206-.129-1.641-.51-1.893-4.337-1.893ZM28.643,55.981c4.337,0,6.378-5.172,6.378-14.757a20.629,20.629,0,0,0-1.786-9.333,4.605,4.605,0,0,0-4.082-2.522,5.886,5.886,0,0,0-4.72,2.775c-.637.884-.892,1.641-.892,11.6,0,8.2.384,8.451.894,9.46A4.594,4.594,0,0,0,28.643,55.981Zm39.286,1.641c-2.68,0-5.357-.254-9.567-.254-4.463,0-6.633.254-8.8.254V55.477c3.571-.127,4.082-.757,4.21-2.145.127-1.513.255-3.909.255-7.82V37.441c0-3.279,0-5.927-.129-7.063s-.639-1.513-3.955-1.386V26.846c4.465-.377,9.822-.5,14.159-1.386-.129,1.641-.255,4.668-.255,11.6v8.7c0,4.036.129,5.8.255,7.567s.639,2.018,3.827,2.4ZM58.361,10.83c3.318,0,5.231,1.893,5.231,5.3,0,2.9-2.169,4.92-5.486,4.92a4.728,4.728,0,0,1-4.973-4.92,5.026,5.026,0,0,1,5.231-5.3ZM71.245,10.2a95.089,95.089,0,0,0,13.9-1.261q-.26,7.816-.257,15.639V40.342c2.424-.632,7.653-6.938,9.694-10.594.384-.757.384-1.136-.637-1.136l-2.806-.252V26.217c4.72.127,9.567-.127,14.414-.379v2.145c-3.571.379-4.976.632-6.38,1.766a59.314,59.314,0,0,0-6.122,6.306c1.531,3.154,7.91,14.757,10.333,17.909a3.57,3.57,0,0,0,3.19,1.513l1.784.127-.127,2.143a95.613,95.613,0,0,0-14.159.757c-1.531-3.531-6.122-12.108-7.524-14.757-.765-1.386-1.149-1.891-1.659-1.766,0,5.172-.127,7.694.129,11.351.129,1.641.51,2.145,3.955,2.27v2.145c-2.424,0-4.976-.252-9.184-.252-4.976,0-7.143.252-9.057.252V55.6c3.316-.125,3.827-.755,3.955-2.018.127-1.513.253-4.793.253-11.351V25.964c0-5.172,0-9.081-.127-12.36q0-1.135-1.531-1.136H71.116ZM40.506,88.773c-2.169,6.811-6.378,10.09-13.394,10.09-6,0-9.822-1.641-12.5-5.172-2.041-2.648-3.061-6.558-3.061-10.972,0-9.712,6-17.153,16.965-17.153,6.633,0,11.48,3.027,11.48,7.947,0,3.4-2.806,4.791-5.1,4.791a5.84,5.84,0,0,1-2.551-.63,1.961,1.961,0,0,1-.894-2.27,18.8,18.8,0,0,0,.384-2.65c0-3.152-1.149-4.665-3.571-4.665-3.955,0-6,5.676-6,13.5,0,3.152.384,6.683,1.531,8.827,1.276,2.9,3.316,4.54,6.378,4.54,3.827,0,6.251-2.143,8.037-7.063Zm7.269-9.206a69.681,69.681,0,0,0-.384-8.831,1.34,1.34,0,0,0-1.531-1.259h-2.3V67.332c3.827-.127,9.057-.379,12.755-1.513l.384.252c.255,1.513.51,5.172.639,7.442H57.6c1.661-4.415,3.955-7.947,8.676-7.947a4.776,4.776,0,0,1,4.72,5.045c0,4.163-3.19,5.424-4.465,5.424s-2.167-.379-2.551-1.263c-.637-1.386-1.02-2.143-2.294-2.143-1.4,0-2.169,1.261-3.061,3.279a13.252,13.252,0,0,0-.639,4.54c0,7.19,0,11.226.129,12.992s.763,2.268,5.865,2.4l-.127,2.145c-3.571-.127-6.761-.254-10.459-.254-3.827,0-6.633.127-9.822.254l.382-2.145c3.061-.127,3.827-.5,3.827-1.766.129-1.766.255-5.172.255-9.081V79.565h-.255Zm43.241-5.8c0-3.786-1.278-5.8-3.829-5.8-2.933,0-4.335,1.641-4.335,4.668a13.926,13.926,0,0,0,.253,2.4,1.788,1.788,0,0,1-.763,1.891,7.026,7.026,0,0,1-3.571,1.136c-2.424,0-4.465-1.138-4.465-3.911,0-4.036,6-8.576,14.414-8.576,6.886,0,9.947,2.775,11.1,4.54a6.287,6.287,0,0,1,1.02,3.406V92.052c0,2.145.639,2.65,1.4,2.65,1.02,0,2.167-1.641,2.678-4.415l2.169,1.009c-1.149,5.424-4.465,7.694-9.057,7.694-3.955,0-6.122-1.641-6.761-4.92C88.208,97.1,85.02,98.99,81.7,98.99c-5.357,0-8.929-3.531-8.929-9.335,0-3.531,1.531-5.549,4.21-6.683,4.335-1.893,10.841-3.784,14.029-6.054V73.764Zm-8.037,14c0,2.775,1.149,5.8,3.955,5.8a3.8,3.8,0,0,0,3.571-2.522,9.271,9.271,0,0,0,.382-3.027V79.44c-1.4.884-3.571,1.893-5.231,2.9C84.127,83.351,82.98,84.61,82.98,87.764ZM108.235,66.7l4.082.125V64.81c.129-5.3,1.4-9.208,4.21-11.983a12.678,12.678,0,0,1,9.31-3.784c5.231,0,8.037,2.522,8.037,5.8,0,2.4-2.041,4.036-4.849,4.036a2.4,2.4,0,0,1-2.551-2.522c0-2.648-.382-4.791-2.294-4.791-1.278,0-2.041,1.134-2.3,3.279-.253,2.018.129,5.8.384,11.728h6.251l-.384,2.522-5.867.379c-.129,2.4-.129,6.558-.129,11.476,0,4.668,0,8.829.129,12.108.129,1.641.384,2.27,1.786,2.4a34.386,34.386,0,0,0,3.445.25l-.259,2.145c-2.422,0-6.249-.252-9.565-.252-3.445,0-7.527.252-9.822.252l.129-2.145c3.316-.125,3.827-.5,3.955-1.891.253-2.145.253-5.424.253-9.838V69.35l-4.335-.252.382-2.4Z" transform="translate(8.367 10.052)" fill="#ffc00c"/>
    <path id="Caminho_22" data-name="Caminho 22" d="M90.317,43.353l-.257,2.422-7.78.51c0,2.68-.129,6.633-.129,11.99,0,5.612,0,9.439.257,11.735.127,1.659.763,2.424,2.041,2.424,2.678,0,4.335-2.935,4.973-5.612h1.02l.894,2.933c-1.531,3.7-5.359,6.251-10.971,6.251-3.061,0-5.739-1.02-7.014-2.551a7.027,7.027,0,0,1-1.276-4.592c0-5.231.255-16.965.255-22.578L68.25,45.9l.255-2.422h3.827c.129-2.424.129-5.231.129-7.782A35.252,35.252,0,0,0,82.026,32l.765.129q-.334,5.669-.384,11.351h7.91v-.127Z" transform="translate(68.935 31.505)" fill="#ffc00c"/>
    <path id="Caminho_23" data-name="Caminho 23" d="M190,10.122V115.388H10V10.122ZM200,0H0V125.51H200Z" transform="translate(-1 0.75)" fill="#ffc00c"/>
  </g>
</svg>
