<svg xmlns="http://www.w3.org/2000/svg" width="98" height="61.5" viewBox="0 0 98 61.5">
  <g id="Grupo_2" data-name="Grupo 2" transform="translate(1 -0.75)">
    <path id="Caminho_21" data-name="Caminho 21" d="M9.125,9.555a52.952,52.952,0,0,0,7.313-.618c-.063.8-.188,3.276-.188,7.973v2.1c1.75-1.422,3.188-2.163,4.938-2.163a5.164,5.164,0,0,1,4.5,2.287,9.611,9.611,0,0,1,1.25,5.006c0,5.747-2.75,9.023-8.313,9.023a10.581,10.581,0,0,1-4.375-1.051c-.75.247-1.75.742-2.75,1.051l-.313-.186c.063-1.669.063-4.82.063-9.085v-7.91c0-1.978-.063-3.337-.125-4.511-.063-.8-.25-.927-2.125-.927Zm9.5,22.434c2.125,0,3.125-2.534,3.125-7.231a10.108,10.108,0,0,0-.875-4.573,2.257,2.257,0,0,0-2-1.236,2.884,2.884,0,0,0-2.313,1.36c-.312.433-.437.8-.437,5.686,0,4.017.188,4.141.438,4.635A2.251,2.251,0,0,0,18.625,31.989Zm19.25.8c-1.313,0-2.625-.125-4.688-.125-2.187,0-3.25.125-4.312.125V31.742c1.75-.062,2-.371,2.063-1.051.062-.742.125-1.915.125-3.832V22.9c0-1.607,0-2.9-.063-3.461s-.313-.742-1.938-.679V17.713A64.287,64.287,0,0,0,36,17.033c-.063.8-.125,2.287-.125,5.686v4.265c0,1.978.063,2.843.125,3.708s.313.989,1.875,1.174ZM33.187,9.864a2.341,2.341,0,0,1,2.563,2.6,2.425,2.425,0,0,1-2.688,2.411,2.317,2.317,0,0,1-2.437-2.411,2.463,2.463,0,0,1,2.563-2.6ZM39.5,9.555a46.594,46.594,0,0,0,6.813-.618q-.127,3.83-.126,7.663v7.725c1.188-.309,3.75-3.4,4.75-5.191.188-.371.188-.557-.312-.557l-1.375-.124V17.4c2.313.062,4.688-.062,7.063-.186v1.051c-1.75.186-2.438.309-3.126.865a29.064,29.064,0,0,0-3,3.09A90.321,90.321,0,0,0,55.25,31a1.75,1.75,0,0,0,1.563.742l.874.062-.062,1.05a46.85,46.85,0,0,0-6.938.371c-.75-1.73-3-5.933-3.687-7.231-.375-.679-.563-.927-.813-.865,0,2.534-.062,3.77.063,5.562.063.8.25,1.051,1.938,1.112v1.051c-1.188,0-2.438-.124-4.5-.124-2.438,0-3.5.124-4.438.124V31.8c1.625-.061,1.875-.37,1.938-.989.062-.742.124-2.348.124-5.562V17.28c0-2.534,0-4.45-.062-6.056q0-.556-.75-.557H39.437Zm-15.062,38.5C23.375,51.394,21.313,53,17.875,53c-2.938,0-4.813-.8-6.125-2.534a8.861,8.861,0,0,1-1.5-5.376c0-4.759,2.938-8.4,8.313-8.4,3.25,0,5.625,1.483,5.625,3.894a2.339,2.339,0,0,1-2.5,2.347,2.862,2.862,0,0,1-1.25-.309A.961.961,0,0,1,20,41.506a9.212,9.212,0,0,0,.188-1.3c0-1.544-.563-2.286-1.75-2.286-1.938,0-2.938,2.781-2.938,6.613a10.139,10.139,0,0,0,.75,4.325,3.256,3.256,0,0,0,3.125,2.225c1.875,0,3.063-1.05,3.938-3.461ZM28,43.546a34.144,34.144,0,0,0-.188-4.327.656.656,0,0,0-.75-.617H25.937V37.551a26.64,26.64,0,0,0,6.25-.742l.188.124c.125.742.25,2.534.313,3.647h.124c.814-2.163,1.938-3.894,4.251-3.894a2.34,2.34,0,0,1,2.313,2.472,2.448,2.448,0,0,1-2.188,2.658c-.624,0-1.062-.186-1.25-.619-.312-.679-.5-1.05-1.124-1.05-.688,0-1.063.618-1.5,1.607A6.493,6.493,0,0,0,33,43.978c0,3.523,0,5.5.063,6.366s.374,1.111,2.874,1.174l-.062,1.051c-1.75-.062-3.313-.125-5.125-.125-1.875,0-3.25.062-4.813.125l.187-1.051c1.5-.062,1.875-.247,1.875-.865.063-.865.125-2.534.125-4.45V43.545H28ZM49.188,40.7c0-1.855-.626-2.844-1.876-2.844-1.437,0-2.124.8-2.124,2.287a6.824,6.824,0,0,0,.124,1.175.876.876,0,0,1-.374.927,3.443,3.443,0,0,1-1.75.557C42,42.8,41,42.247,41,40.888c0-1.978,2.938-4.2,7.063-4.2,3.374,0,4.874,1.36,5.437,2.225a3.08,3.08,0,0,1,.5,1.669v9.084c0,1.051.313,1.3.688,1.3.5,0,1.062-.8,1.312-2.163l1.063.494c-.563,2.658-2.188,3.77-4.438,3.77-1.938,0-3-.8-3.313-2.411-1.5,1.483-3.062,2.411-4.687,2.411-2.625,0-4.375-1.73-4.375-4.574a3.193,3.193,0,0,1,2.063-3.275c2.124-.927,5.312-1.854,6.874-2.966V40.7ZM45.25,47.562c0,1.36.563,2.843,1.938,2.843a1.86,1.86,0,0,0,1.75-1.236,4.543,4.543,0,0,0,.187-1.483v-4.2c-.688.433-1.75.927-2.563,1.422A2.734,2.734,0,0,0,45.25,47.562Zm12.375-10.32,2,.061v-.989c.063-2.6.688-4.512,2.063-5.871a6.212,6.212,0,0,1,4.562-1.854c2.563,0,3.938,1.236,3.938,2.843a2.114,2.114,0,0,1-2.376,1.978,1.174,1.174,0,0,1-1.25-1.236c0-1.3-.187-2.347-1.124-2.347-.626,0-1,.556-1.126,1.607A55.5,55.5,0,0,0,64.5,37.18h3.063l-.188,1.236L64.5,38.6c-.063,1.174-.063,3.214-.063,5.623,0,2.287,0,4.326.063,5.933.063.8.188,1.112.875,1.175a16.849,16.849,0,0,0,1.688.123l-.127,1.051c-1.187,0-3.062-.124-4.687-.124-1.688,0-3.688.124-4.813.124l.063-1.051c1.625-.061,1.875-.247,1.938-.927.124-1.051.124-2.658.124-4.82V38.54l-2.124-.124.187-1.175Z" transform="translate(-1 0.75)"/>
    <path id="Caminho_22" data-name="Caminho 22" d="M79.063,37.563l-.126,1.187L75.125,39c0,1.313-.063,3.25-.063,5.875,0,2.75,0,4.625.126,5.75.062.813.374,1.188,1,1.188,1.312,0,2.124-1.438,2.437-2.75h.5l.438,1.437c-.75,1.813-2.626,3.063-5.376,3.063a4.575,4.575,0,0,1-3.437-1.25,3.443,3.443,0,0,1-.625-2.25c0-2.563.125-8.313.125-11.063l-2-.188.125-1.187H70.25c.063-1.188.063-2.563.063-3.813A17.273,17.273,0,0,0,75,32l.375.063q-.164,2.778-.188,5.562h3.876v-.063Z" transform="translate(-1.539 -0.5)"/>
    <path id="Caminho_23" data-name="Caminho 23" d="M93.1,4.96V56.54H4.9V4.96ZM98,0H0V61.5H98Z" transform="translate(-1 0.75)"/>
  </g>
</svg>
